<svg id="Capa_1" enable-background="new 0 0 497 497" height="512" viewBox="0 0 497 497" width="512" xmlns="http://www.w3.org/2000/svg"><g><path d="m497 135.995v292c0 13.807-11.193 25-25 25h-447c-13.807 0-25-11.193-25-25v-292z" fill="#f8f7f7"/><path d="m497 136.005v15h-476c-3.31 0-6 2.69-6 6v293.91c-8.83-3.85-15-12.66-15-22.91v-292z" fill="#e8e8e8"/><path d="m497 69.005v67.5h-497v-67.5c0-13.807 11.193-25 25-25h447c13.807 0 25 11.193 25 25z" fill="#855b51"/><g fill="#724d44"><path d="m242.758 120.005c-8.255 0-14.947-6.716-14.947-15s6.692-15 14.947-15h186.315c8.255 0 14.947 6.716 14.947 15s-6.692 15-14.947 15z"/><ellipse cx="164.869" cy="104.005" rx="14.947" ry="15"/><path d="m175.361 114.689 12.874-12.869-13.139 1.179z"/><path d="m154.592 93.114 12.562-12.517-2.693 10.408z"/><ellipse cx="104.034" cy="104.005" rx="14.947" ry="15"/><path d="m114.553 114.662 12.382-12.498-12.674.835z"/><path d="m93.757 93.114 12.371-12.46-2.502 10.351z"/><ellipse cx="44.947" cy="104.005" rx="14.947" ry="15"/><path d="m55.769 114.351 12.721-13.186-13.139 1.381z"/><path d="m34.67 93.114 11.622-12.039-1.753 9.93z"/></g><ellipse cx="177.849" cy="91.005" fill="#b3e59f" rx="14.947" ry="15"/><path d="m232.916 93.716 13.037-12.859-3.025 14.276z" fill="#724d44"/><path d="m439.83 115.421 13.149-13.18-10.185 3.381z" fill="#724d44"/><ellipse cx="116.946" cy="91.005" fill="#ffd163" rx="14.947" ry="15"/><ellipse cx="57.495" cy="91.005" fill="#dc4955" rx="14.947" ry="15"/><path d="m255.737 107.005c-8.255 0-14.947-6.716-14.947-15s6.692-15 14.947-15h186.315c8.255 0 14.947 6.716 14.947 15s-6.692 15-14.947 15z" fill="#f8f7f7"/><g><path d="m248.5 423.255c-4.142 0-7.5-3.358-7.5-7.5v-150c0-4.142 3.358-7.5 7.5-7.5 4.143 0 7.5 3.358 7.5 7.5v150c0 4.142-3.357 7.5-7.5 7.5z" fill="#e8e8e8"/></g><path d="m447 205.755h-397c-5.523 0-10-4.477-10-10v-10c0-5.523 4.477-10 10-10h397c5.523 0 10 4.477 10 10v10c0 5.523-4.477 10-10 10z" fill="#e8e8e8"/><g><path d="m457 243.255h-22.096c-4.143 0-7.5-3.358-7.5-7.5s3.357-7.5 7.5-7.5h22.096c4.143 0 7.5 3.358 7.5 7.5s-3.357 7.5-7.5 7.5z" fill="#e8e8e8"/></g><g><path d="m404.904 243.255h-220.085c-4.142 0-7.5-3.358-7.5-7.5s3.358-7.5 7.5-7.5h220.085c4.143 0 7.5 3.358 7.5 7.5s-3.357 7.5-7.5 7.5z" fill="#e8e8e8"/></g><g><path d="m154.819 243.255h-94.819c-4.142 0-7.5-3.358-7.5-7.5s3.358-7.5 7.5-7.5h94.819c4.142 0 7.5 3.358 7.5 7.5s-3.358 7.5-7.5 7.5z" fill="#e8e8e8"/></g><g><path d="m98 324.755h-47c-5.523 0-10-4.477-10-10v-38c0-5.523 4.477-10 10-10l2-1h46c5.523 0 10 4.477 10 10v37l-1 2c0 5.523-4.477 10-10 10z" fill="#c8b8f4"/><path d="m109 312.755v3c0 5.523-4.477 10-10 10h-49c-5.523 0-10-4.477-10-10v-40c0-5.523 4.477-10 10-10h3v42c0 2.761 2.239 5 5 5z" fill="#b09eef"/></g><g><path d="m347 384.755h-47c-5.523 0-10-4.477-10-10v-38c0-5.523 4.477-10 10-10l2-1h46c5.523 0 10 4.477 10 10v37l-1 2c0 5.523-4.477 10-10 10z" fill="#bae6ef"/><path d="m358 372.755v3c0 5.523-4.477 10-10 10h-49c-5.523 0-10-4.477-10-10v-40c0-5.523 4.477-10 10-10h3v42c0 2.761 2.239 5 5 5z" fill="#94d8e6"/></g><g><path d="m446 384.755h-47c-5.523 0-10-4.477-10-10v-38c0-5.523 4.477-10 10-10l2-1h46c5.523 0 10 4.477 10 10v37l-1 2c0 5.523-4.477 10-10 10z" fill="#ffd163"/><path d="m457 372.755v3c0 5.523-4.477 10-10 10h-49c-5.523 0-10-4.477-10-10v-40c0-5.523 4.477-10 10-10h3v42c0 2.761 2.239 5 5 5z" fill="#ffb65f"/></g><g><path d="m209 273.255h-70c-4.142 0-7.5-3.358-7.5-7.5s3.358-7.5 7.5-7.5h70c4.142 0 7.5 3.358 7.5 7.5s-3.358 7.5-7.5 7.5z" fill="#e8e8e8"/></g><g><path d="m209 303.255h-70c-4.142 0-7.5-3.358-7.5-7.5s3.358-7.5 7.5-7.5h70c4.142 0 7.5 3.358 7.5 7.5s-3.358 7.5-7.5 7.5z" fill="#e8e8e8"/></g><g><path d="m189 333.255h-50c-4.142 0-7.5-3.358-7.5-7.5s3.358-7.5 7.5-7.5h50c4.142 0 7.5 3.358 7.5 7.5s-3.358 7.5-7.5 7.5z" fill="#e8e8e8"/></g><g><path d="m209 363.255h-149c-4.142 0-7.5-3.358-7.5-7.5s3.358-7.5 7.5-7.5h149c4.142 0 7.5 3.358 7.5 7.5s-3.358 7.5-7.5 7.5z" fill="#e8e8e8"/></g><g><path d="m209 393.255h-92.734c-4.142 0-7.5-3.358-7.5-7.5s3.358-7.5 7.5-7.5h92.734c4.142 0 7.5 3.358 7.5 7.5s-3.358 7.5-7.5 7.5z" fill="#e8e8e8"/></g><g><path d="m86.266 393.255h-46.266c-4.142 0-7.5-3.358-7.5-7.5s3.358-7.5 7.5-7.5h46.266c4.142 0 7.5 3.358 7.5 7.5s-3.358 7.5-7.5 7.5z" fill="#e8e8e8"/></g><g><path d="m139 423.255h-99c-4.142 0-7.5-3.358-7.5-7.5s3.358-7.5 7.5-7.5h99c4.142 0 7.5 3.358 7.5 7.5s-3.358 7.5-7.5 7.5z" fill="#e8e8e8"/></g><g><path d="m457 273.255h-72.649c-4.143 0-7.5-3.358-7.5-7.5s3.357-7.5 7.5-7.5h72.649c4.143 0 7.5 3.358 7.5 7.5s-3.357 7.5-7.5 7.5z" fill="#e8e8e8"/></g><g><path d="m354.351 273.255h-45.351c-4.143 0-7.5-3.358-7.5-7.5s3.357-7.5 7.5-7.5h45.351c4.143 0 7.5 3.358 7.5 7.5s-3.358 7.5-7.5 7.5z" fill="#e8e8e8"/></g><g><path d="m423 303.255h-134c-4.143 0-7.5-3.358-7.5-7.5s3.357-7.5 7.5-7.5h134c4.143 0 7.5 3.358 7.5 7.5s-3.357 7.5-7.5 7.5z" fill="#e8e8e8"/></g><g><path d="m423 423.255h-73.202c-4.143 0-7.5-3.358-7.5-7.5s3.357-7.5 7.5-7.5h73.202c4.143 0 7.5 3.358 7.5 7.5s-3.357 7.5-7.5 7.5z" fill="#e8e8e8"/></g><g><path d="m319.798 423.255h-30.798c-4.143 0-7.5-3.358-7.5-7.5s3.357-7.5 7.5-7.5h30.798c4.143 0 7.5 3.358 7.5 7.5s-3.358 7.5-7.5 7.5z" fill="#e8e8e8"/></g></g></svg>